<svg width="36" height="29" viewBox="0 0 36 29" fill="none" xmlns="http://www.w3.org/2000/svg">
<path d="M36 0.487645C36 0.744396 36 1.00115 36 1.2579C35.9031 1.566 35.8062 1.8741 35.7369 2.1822C33.8123 10.7448 31.9015 19.3075 29.9769 27.8573C29.7 29.0897 29.0631 29.3208 27.9969 28.6019C25.4492 26.8945 22.9154 25.1871 20.3815 23.4797C19.3985 22.8121 18.9554 22.8121 17.9862 23.531C16.6569 24.5195 15.3415 25.5337 14.0123 26.535C13.0431 27.2668 12.3923 27.0742 12.0323 25.983C11.0631 23.0817 10.08 20.1933 9.12462 17.2791C9 16.894 8.77846 16.6886 8.36308 16.5474C5.89846 15.713 3.43385 14.8657 0.983077 13.9799C0.623077 13.8515 0.332308 13.5434 0 13.3252C0 13.1069 0 12.9015 0 12.6833C0.332308 12.4651 0.636923 12.1826 1.01077 12.0543C12.0738 8.08747 23.1508 4.13351 34.2277 0.153869C34.9338 -0.102882 35.5015 -0.0772066 36 0.487645ZM10.8554 16.5602C10.8692 16.5988 10.8692 16.6886 10.8969 16.7785C11.4785 18.6913 12.06 20.6041 12.6554 22.5169C12.7108 22.6709 12.96 22.7736 13.1123 22.902C13.2369 22.7479 13.4585 22.5939 13.4862 22.427C13.6385 21.6439 13.7769 20.8608 13.8323 20.0777C13.9154 19.0636 14.3585 18.2676 15.1754 17.5744C19.2323 14.1211 23.2615 10.6293 27.2908 7.15033C27.54 6.93209 27.8031 6.72669 28.0385 6.48278C28.1354 6.39291 28.1354 6.22603 28.1908 6.09765C28.0246 6.08481 27.8446 6.03346 27.6923 6.07197C27.5262 6.11049 27.3738 6.23886 27.2215 6.32873C25.2277 7.45843 23.22 8.60097 21.2262 9.75635C18.1108 11.5408 14.9815 13.3252 11.8523 15.0968C11.2569 15.4305 10.8831 15.8542 10.8554 16.5602Z" fill="black"/>
</svg>
