<svg width="31" height="29" viewBox="0 0 31 29" fill="none" xmlns="http://www.w3.org/2000/svg">
<path d="M0 7.71444C0.0227401 4.59812 1.11427 2.38159 3.20636 0.64786C3.7976 0.165051 4.4798 -0.0544088 5.25297 0.0114289C5.82147 0.0553207 6.36723 0.0992125 6.93573 0.121158C7.39054 0.143104 7.7089 0.384509 7.91356 0.75759C8.1637 1.21845 8.34562 1.70126 8.55028 2.18407C9.20975 3.85196 9.84647 5.5418 10.5059 7.20968C10.6651 7.6486 10.6196 8.02168 10.415 8.43865C9.93743 9.36038 9.187 10.0407 8.48206 10.7869C8.41384 10.8746 8.32288 10.9405 8.25466 11.0063C7.75438 11.4891 7.66342 11.8622 8.02726 12.4328C8.7322 13.552 9.43715 14.6713 10.2558 15.7247C12.2114 18.2046 14.6901 20.0919 17.6236 21.4306C17.9419 21.5842 18.2603 21.7379 18.5787 21.8695C19.079 22.089 19.5338 22.0232 19.8976 21.6062C20.7617 20.6625 21.6258 19.7188 22.4672 18.7532C22.9675 18.1826 23.2859 18.029 24.0136 18.3363C24.9686 18.7532 25.901 19.2141 26.8333 19.675C27.9703 20.2455 29.0619 20.86 30.1989 21.4087C30.7901 21.694 31.0403 22.089 30.9948 22.7254C30.9038 23.7569 30.6992 24.7883 30.1989 25.6881C29.9032 26.1929 29.4484 26.6537 28.9709 27.0488C27.9249 27.9047 26.7196 28.4972 25.378 28.7825C23.7407 29.1556 22.1261 29.0458 20.5343 28.4753C18.0102 27.5755 15.486 26.7196 13.1893 25.3589C10.2103 23.6033 7.75438 21.2551 5.59407 18.6215C4.025 16.6903 2.59237 14.6713 1.43263 12.4767C0.568502 10.8746 0.0227401 9.14092 0 7.71444Z" fill="black"/>
</svg>
