<svg width="33" height="31" viewBox="0 0 33 31" fill="none" xmlns="http://www.w3.org/2000/svg">
<path fill-rule="evenodd" clip-rule="evenodd" d="M10.375 0H22.2365C24.8578 0.000318084 27.3716 1.01543 29.2251 2.8221C31.0786 4.62876 32.12 7.07903 32.1203 9.63404V21.1959C32.12 23.7509 31.0786 26.2011 29.2251 28.0078C27.3716 29.8145 24.8578 30.8296 22.2365 30.8299H10.375C7.75376 30.8296 5.23996 29.8145 3.38647 28.0078C1.53297 26.2011 0.491537 23.7509 0.491211 21.1959V9.63404C0.491537 7.07903 1.53297 4.62876 3.38647 2.8221C5.23996 1.01543 7.75376 0.000318084 10.375 0ZM25.7053 8.04805C26.3216 8.04805 26.8213 7.56101 26.8213 6.96022C26.8213 6.35943 26.3216 5.87239 25.7053 5.87239C25.0889 5.87239 24.5892 6.35943 24.5892 6.96022C24.5892 7.56101 25.0889 8.04805 25.7053 8.04805ZM11.7442 8.71662C13.1217 7.81945 14.7412 7.34059 16.3979 7.34059C17.498 7.34059 18.5872 7.55178 19.6035 7.9621C20.6198 8.37243 21.5432 8.97384 22.321 9.73202C23.0989 10.4902 23.7159 11.3903 24.1369 12.3809C24.5578 13.3715 24.7745 14.4332 24.7745 15.5055C24.7745 17.1203 24.2832 18.6989 23.3628 20.0416C22.4424 21.3843 21.1341 22.4308 19.6035 23.0488C18.0729 23.6668 16.3886 23.8285 14.7637 23.5134C13.1388 23.1984 11.6463 22.4207 10.4748 21.2789C9.30331 20.137 8.50553 18.6822 8.18232 17.0983C7.8591 15.5145 8.02498 13.8728 8.65899 12.3809C9.29299 10.889 10.3666 9.61378 11.7442 8.71662ZM13.489 19.7489C14.3501 20.3096 15.3624 20.609 16.3979 20.609C17.786 20.6073 19.1168 20.069 20.0983 19.1123C21.0798 18.1556 21.632 16.8585 21.6338 15.5055C21.6338 14.4961 21.3267 13.5094 20.7514 12.6701C20.176 11.8308 19.3583 11.1767 18.4016 10.7904C17.4449 10.4042 16.3921 10.3031 15.3765 10.5C14.3608 10.6969 13.4279 11.183 12.6956 11.8967C11.9634 12.6105 11.4647 13.5198 11.2627 14.5098C11.0607 15.4998 11.1644 16.5259 11.5606 17.4585C11.9569 18.391 12.628 19.1881 13.489 19.7489Z" fill="black"/>
</svg>
